PathFileType	4	(X/Y/Z)	G:\Shared drives\HPL_Drive\Pi-Spi Study\20230118_AMCsubject1\Trimmed_left_flex_18001_rotated.trc
DataRate	CameraRate	NumFrames	NumMarkers	Units	OrigDataRate	OrigDataStartFrame	OrigNumFrames
200.00	200.00	       8	35	mm	200.00	76	       200
Frame#	Time	C7			Sternum			r_AMC1			r_AMC2			r_AMC3			l_AMC1			l_AMC2			l_AMC3			PX			T8			r_humerous			r_elbow_medial			r_elbow_lateral			r_forearm			r_wrist_radius			r_wrist_ulna			r_MCP_1			r_MCP_3			l_humerous			l_elbow_medial			l_elbow_lateral			l_forearm			l_wrist_radius			l_wrist_ulna			l_MCP_1			l_MCP_3			r_ASIS			r_PSIS			l_ASIS			l_PSIS			r_IC			l_IC			TS			AI			AA			
		X1	Y1	Z1	X2	Y2	Z2	X3	Y3	Z3	X4	Y4	Z4	X5	Y5	Z5	X6	Y6	Z6	X7	Y7	Z7	X8	Y8	Z8	X9	Y9	Z9	X10	Y10	Z10	X11	Y11	Z11	X12	Y12	Z12	X13	Y13	Z13	X14	Y14	Z14	X15	Y15	Z15	X16	Y16	Z16	X17	Y17	Z17	X18	Y18	Z18	X19	Y19	Z19	X20	Y20	Z20	X21	Y21	Z21	X22	Y22	Z22	X23	Y23	Z23	X24	Y24	Z24	X25	Y25	Z25	X26	Y26	Z26	X27	Y27	Z27	X28	Y28	Z28	X29	Y29	Z29	X30	Y30	Z30	X31	Y31	Z31	X32	Y32	Z32	X33	Y33	Z33	X34	Y34	Z34	X35	Y35	Z35	

76	0.375	195.7341	1368.3121	-235.2384	332.198	1325.3347	-205.0512	178.4968	1318.0587	-78.2453	208.6227	1321.7246	-37.7873	229.3242	1358.0615	-56.3222	202.6567	1341.6708	-359.2828	237.5159	1376.5765	-373.1345	225.6382	1397.4401	-326.2053	406.3098	1134.7327	-199.2311	175.0721	1189.8224	-239.8788	293.0844	1142.1266	-12.6234	232.941	997.3168	-43.897	244.3849	1008.4765	21.0301	302.714	855.7383	47.3973	354.8873	794.196	30.4978	306.977	785.5143	47.4059	379.2278	712.8118	45.2093	330.4575	707.6829	58.3491	316.4892	1476.3208	-352.4812	408.2392	1564.7411	-430.4271	362.6683	1590.1508	-438.4782	385.4225	1749.4647	-439.2421	396.0438	1822.4908	-421.8262	432.0783	1818.0167	-445.9035	399.933	1897.314	-430.1332	439.0552	1893.8424	-448.0167	373.1139	907.1957	-78.4155	185.7909	928.711	-164.3042	375.3314	894.5548	-336.7733	187.3443	922.5477	-266.4727	291.9433	970.8565	-52.5063	290.522	941.0568	-376.6233	139.2424	1290.6854	-334.6402	167.3892	1199.2456	-367.3126	198.1747	1353.0538	-443.3714
77	0.38	195.7336	1368.3119	-235.2218	332.2144	1325.3313	-205.0547	178.5072	1318.0875	-78.2157	208.6216	1321.7707	-37.788	229.2915	1358.0262	-56.2131	202.6543	1341.718	-359.2533	237.5247	1376.5941	-373.1212	225.6178	1397.418	-326.1829	406.3379	1134.7516	-199.2287	175.0823	1189.8325	-239.873	293.1082	1142.1332	-12.6139	232.9567	997.3134	-43.8678	244.4017	1008.4842	21.0313	302.794	855.7527	47.4213	354.9529	794.2003	30.5425	307.0495	785.5363	47.4208	379.2748	712.8816	45.2706	330.5421	707.715	58.3987	316.5763	1476.3025	-352.4269	408.2903	1564.6847	-430.4346	362.6839	1590.1548	-438.4493	385.4214	1749.4563	-439.2415	396.0464	1822.4747	-421.8646	432.0605	1817.99	-445.9252	399.9651	1897.3176	-430.1552	439.032	1893.805	-448.0361	373.176	907.2056	-78.4155	185.8067	928.6993	-164.2684	375.2982	894.5787	-336.7929	187.3508	922.5188	-266.4707	291.9999	970.8175	-52.4324	290.6207	941.0435	-376.6791	139.2756	1290.6602	-334.64	167.357	1199.1834	-367.2614	198.1496	1353.0045	-443.3473
78	0.385	195.7516	1368.3085	-235.2405	332.2212	1325.3264	-205.0395	178.5201	1318.0903	-78.2004	208.6303	1321.6969	-37.739	229.2898	1358.0713	-56.2193	202.6916	1341.6296	-359.2776	237.5303	1376.5741	-373.0876	225.6257	1397.4147	-326.1702	406.365	1134.7457	-199.2013	175.078	1189.8126	-239.8678	293.1289	1142.157	-12.5935	233.0004	997.3195	-43.8511	244.4443	1008.5236	21.0804	302.814	855.7955	47.4675	354.9835	794.2692	30.6079	307.1319	785.5395	47.446	379.4035	712.8572	45.3108	330.5541	707.8671	58.4934	316.5326	1476.2865	-352.458	408.302	1564.6633	-430.433	362.6953	1590.1558	-438.438	385.4334	1749.4395	-439.2612	396.0641	1822.4597	-421.8714	432.1171	1817.9871	-445.9387	399.9737	1897.305	-430.1674	439.0781	1893.7946	-448.0673	373.1832	907.194	-78.4005	185.7861	928.7146	-164.2322	375.3026	894.5664	-336.7829	187.3386	922.5388	-266.4378	292.0065	970.8258	-52.4292	290.5438	941.0934	-376.6307	139.2059	1290.6416	-334.6517	167.3829	1199.157	-367.255	198.1481	1352.9742	-443.3241
79	0.39	195.7431	1368.3359	-235.2205	332.231	1325.3363	-205.028	178.5068	1318.0961	-78.1886	208.621	1321.788	-37.7726	229.3211	1358.0461	-56.268	202.667	1341.694	-359.2353	237.5606	1376.5686	-373.0936	225.6607	1397.3998	-326.1947	406.3553	1134.7808	-199.2004	175.0886	1189.8112	-239.8591	293.1544	1142.142	-12.5673	233.0169	997.3351	-43.8054	244.456	1008.5008	21.1105	302.88	855.8191	47.5078	355.1162	794.1968	30.6104	307.1207	785.6614	47.4865	379.48	712.9262	45.3657	330.6489	707.8304	58.5013	316.4804	1476.3274	-352.4733	408.2736	1564.692	-430.4126	362.7036	1590.1092	-438.4727	385.4558	1749.4276	-439.2714	396.0663	1822.4749	-421.8579	432.1464	1817.9688	-445.9577	399.9948	1897.2937	-430.2321	439.0904	1893.7976	-448.0861	373.1628	907.2104	-78.3681	185.7903	928.7054	-164.1798	375.2907	894.5605	-336.7534	187.3506	922.5253	-266.3829	291.9941	970.9465	-52.4309	290.4878	941.1202	-376.6029	139.3193	1290.6957	-334.5736	167.4081	1199.1296	-367.2314	198.161	1352.8988	-443.2006
80	0.395	195.7664	1368.3363	-235.2415	332.2325	1325.3357	-205.0124	178.5308	1318.0992	-78.1854	208.6089	1321.7715	-37.7155	229.3092	1358.0783	-56.2405	202.7095	1341.631	-359.2528	237.5522	1376.5695	-373.064	225.6582	1397.3933	-326.1515	406.3383	1134.7336	-199.2318	175.07	1189.8184	-239.8517	293.1884	1142.1638	-12.5731	233.0523	997.3516	-43.7691	244.4951	1008.5063	21.1418	302.9136	855.876	47.5467	355.1681	794.2952	30.6537	307.2948	785.6133	47.5541	379.5374	712.9579	45.375	330.7274	707.8708	58.5596	316.5992	1476.2494	-352.4228	408.3339	1564.6385	-430.4445	362.7064	1590.1158	-438.4674	385.4475	1749.4154	-439.3036	396.0876	1822.4443	-421.9074	432.1334	1817.9362	-445.9817	399.9891	1897.2812	-430.2416	439.0898	1893.7819	-448.1089	373.2375	907.1683	-78.3816	185.8004	928.7045	-164.1834	375.2669	894.5723	-336.7296	187.3547	922.535	-266.3465	292.0701	970.7823	-52.4206	290.4624	941.1575	-376.572	139.2077	1290.5469	-334.613	167.389	1199.082	-367.2072	198.1187	1352.9285	-443.2844
81	0.4	195.7768	1368.3195	-235.2274	332.2607	1325.3269	-204.9853	178.512	1318.1132	-78.1926	208.6499	1321.7493	-37.7525	229.2972	1358.0977	-56.1966	202.6994	1341.6782	-359.2021	237.5647	1376.5681	-373.0941	225.6998	1397.3857	-326.1396	406.3694	1134.7389	-199.238	175.0906	1189.8192	-239.8325	293.187	1142.1853	-12.5388	233.0724	997.3506	-43.746	244.5151	1008.5095	21.1652	303.0387	855.8395	47.5829	355.238	794.3312	30.7291	307.3311	785.6605	47.6187	379.4131	712.8732	45.3044	330.8541	707.8235	58.6335	316.5764	1476.2556	-352.441	408.3217	1564.6245	-430.4235	362.7175	1590.0955	-438.4739	385.4474	1749.4025	-439.3322	396.0832	1822.4371	-421.9366	432.1631	1817.8983	-445.9854	399.9793	1897.2762	-430.2861	439.1112	1893.7931	-448.1394	373.2363	907.2089	-78.3527	185.7905	928.7142	-164.1101	375.3	894.553	-336.7227	187.3469	922.5399	-266.3283	292.0534	970.841	-52.3523	290.5385	941.0323	-376.5733	139.2965	1290.6399	-334.6434	167.404	1199.0686	-367.1791	198.1463	1352.8671	-443.1671
82	0.405	195.7912	1368.3413	-235.2481	332.2726	1325.2999	-204.9997	178.5218	1318.1207	-78.175	208.6215	1321.7705	-37.7433	229.2946	1358.1389	-56.2404	202.6988	1341.6808	-359.1773	237.6068	1376.5636	-373.0569	225.7185	1397.3763	-326.1195	406.3261	1134.7234	-199.1991	175.0947	1189.8359	-239.8409	293.193	1142.2213	-12.5187	233.0981	997.3592	-43.7156	244.5683	1008.5512	21.2046	303.093	855.8805	47.6272	355.2318	794.408	30.813	307.4335	785.6739	47.6896	379.4984	712.864	45.3592	330.9721	707.8686	58.6669	316.6154	1476.2593	-352.4329	408.339	1564.6271	-430.4122	362.7545	1590.0753	-438.5236	385.455	1749.3917	-439.3523	396.0974	1822.4407	-421.9733	432.1386	1817.917	-446.0166	399.9833	1897.2761	-430.3383	439.1236	1893.7417	-448.179	373.2004	907.1758	-78.3354	185.8036	928.7173	-164.0983	375.2573	894.5784	-336.7006	187.3444	922.5264	-266.2864	292.0822	970.8098	-52.3638	290.4494	941.1366	-376.5692	139.2942	1290.6201	-334.5805	167.4313	1199.0228	-367.1877	198.1233	1352.8456	-443.1459
83	0.41	195.8153	1368.3207	-235.2182	332.2829	1325.3041	-204.9831	178.5264	1318.1213	-78.199	208.6487	1321.7869	-37.736	229.3256	1358.0911	-56.2309	202.7742	1341.6317	-359.2374	237.611	1376.5708	-373.0385	225.7293	1397.3827	-326.0939	406.373	1134.6971	-199.1847	175.1005	1189.8287	-239.8355	293.2563	1142.1893	-12.5254	233.1394	997.3742	-43.652	244.5994	1008.5904	21.2512	303.1227	855.9222	47.6779	355.4047	794.3093	30.7465	307.4888	785.7324	47.7498	379.6504	712.8298	45.3591	331.0751	707.8909	58.7165	316.6185	1476.2551	-352.4307	408.3843	1564.6333	-430.4131	362.7833	1590.0647	-438.5003	385.4555	1749.3877	-439.3825	396.0671	1822.4408	-421.9949	432.1628	1817.8883	-446.062	399.9933	1897.2773	-430.3993	439.1151	1893.764	-448.2295	373.257	907.2042	-78.3171	185.7861	928.7035	-164.0564	375.2208	894.5722	-336.7097	187.352	922.5278	-266.2525	292.0788	970.8564	-52.3847	290.5066	941.0493	-376.5518	139.2968	1290.5802	-334.5814	167.4311	1199.0421	-367.1674	198.0491	1352.8781	-443.2284
